<svg width="20" height="22" viewBox="0 0 20 22" fill="none" xmlns="http://www.w3.org/2000/svg">
<path d="M9.75346 5.13843C9.04354 5.13843 8.34957 5.31376 7.75929 5.64226C7.16901 5.97076 6.70895 6.43766 6.43728 6.98393C6.1656 7.5302 6.09452 8.1313 6.23302 8.71122C6.37152 9.29114 6.71337 9.82383 7.21536 10.2419C7.71735 10.66 8.35692 10.9448 9.0532 11.0601C9.74948 11.1755 10.4712 11.1163 11.1271 10.89C11.7829 10.6637 12.3435 10.2805 12.7379 9.7889C13.1324 9.29727 13.3429 8.71927 13.3429 8.12799C13.3418 7.33538 12.9633 6.5755 12.2904 6.01505C11.6174 5.45459 10.7051 5.13933 9.75346 5.13843V5.13843ZM9.75346 9.62277C9.3985 9.62277 9.05151 9.5351 8.75637 9.37085C8.46124 9.2066 8.2312 8.97315 8.09537 8.70002C7.95953 8.42688 7.92399 8.12633 7.99324 7.83637C8.06249 7.54641 8.23342 7.28007 8.48441 7.07102C8.73541 6.86197 9.05519 6.71961 9.40333 6.66193C9.75147 6.60425 10.1123 6.63386 10.4403 6.74699C10.7682 6.86013 11.0485 7.05172 11.2457 7.29753C11.4429 7.54335 11.5482 7.83235 11.5482 8.12799C11.5476 8.52429 11.3584 8.90423 11.0219 9.18445C10.6854 9.46468 10.2293 9.62231 9.75346 9.62277V9.62277Z" fill="black"/>
<path d="M16.6509 2.37881C14.9455 0.958788 12.669 0.115237 10.2608 0.010964C7.8526 -0.0933093 5.48336 0.549087 3.61037 1.81417C1.73739 3.07925 0.493434 4.87734 0.118591 6.86139C-0.256252 8.84545 0.264591 10.8748 1.5806 12.5578L8.36164 21.2282C8.51254 21.4211 8.71887 21.5796 8.96192 21.6893C9.20497 21.7991 9.47706 21.8565 9.75352 21.8565C10.03 21.8565 10.3021 21.7991 10.5451 21.6893C10.7882 21.5796 10.9945 21.4211 11.1454 21.2282L17.9267 12.5578C19.1478 10.9966 19.6874 9.1332 19.4551 7.27998C19.2229 5.42676 18.2328 3.69636 16.6509 2.37881V2.37881ZM16.4229 11.7419L9.75355 20.2692L3.08412 11.7419C1.04263 9.13172 1.48049 5.6386 4.12522 3.43576C4.86433 2.82015 5.7418 2.33182 6.70751 1.99865C7.67322 1.66548 8.70827 1.494 9.75355 1.494C10.7988 1.494 11.8339 1.66548 12.7996 1.99865C13.7653 2.33182 14.6428 2.82015 15.3819 3.43576C18.0266 5.6386 18.4644 9.13172 16.4229 11.7419Z" fill="black"/>
</svg>
